<svg xmlns="http://www.w3.org/2000/svg" viewBox="0 0 512 512" role="img" aria-label="JimBoats">
  <rect width="512" height="512" rx="96" fill="#0b6ea8" />
  <circle cx="392" cy="112" r="42" fill="#7dd3fc" opacity="0.55" />
  <g transform="translate(68 146) scale(1.24)" fill="#ffffff">
    <path d="m 103.6231,180.2155 c -21.18752,-3.2593 -42.88852,-5.6825 -63.19108,-12.7382 -7.15443,-21.0833 -9.97464,-43.5095 -13.56401,-65.4585 -0.42807,-13.0188 -2.59107,-29.0361 -19.34245,-28.0622 -11.96548,-0.4333 -8.38418,-11.6859 1.814,-8.0938 34.77895,4.5876 69.5192,9.6482 104.29477,14.3504 30.43698,4.2601 60.87221,8.549 91.28489,12.9697 6.11135,-9.2852 1.52158,-23.6875 2.62968,-34.9873 -0.0422,-17.91026 -1.45761,-35.89747 0.11864,-53.76498 8.74829,-14.86767 11.45149,11.83504 9.99409,19.25793 0.5633,23.98494 1.087,48.01115 2.9846,71.92875 20.466,4.5065 41.0845,8.3488 61.6203,12.5324 2.4293,15.1797 -21.222,4.0667 -29.7481,4.7725 -9.8304,0.2833 -26.096,-8.1644 -31.988,-1.7811 5.2937,5.2186 15.5221,7.4585 14.051,17.8251 16.8623,-0.5942 33.5162,-4.9414 50.122,-7.9754 7.2838,-5.2225 2.2936,-26.168 17.4645,-21.7822 2.327,11.5733 -1.9922,23.7713 -2.8921,35.5247 -4.2865,10.2491 1.8346,30.0218 -10.6202,33.7854 -58.7713,11.3336 -119.00452,17.7879 -178.81927,12.3924 -2.07353,-0.2093 -4.14492,-0.44 -6.21326,-0.6956 z m 88.6667,-26.025 c 30.37233,-3.1908 61.08513,-6.4801 90.38653,-15.4214 11.277,-7.2393 -10.7838,-0.086 -14.8787,0.5013 -57.44222,11.8184 -116.69722,15.3569 -175.13711,10.444 -17.15392,-1.5722 -34.28446,-4.6663 -50.48965,-10.4605 4.56896,8.5452 21.80218,7.4457 31.36049,10.6622 30.39406,5.884 61.41452,6.8772 92.27858,5.6189 8.8336,-0.272 17.67162,-0.5974 26.47986,-1.3445 z m -32.6667,-18.9007 c 14.06377,4.8051 13.42349,-17.8951 0.24439,-14.311 -8.28116,-0.6584 -20.38263,-4.613 -18.77318,8.6791 -3.74383,10.7789 13.13387,4.4452 18.52879,5.6319 z m -38.04018,-12.1401 c -1.78696,-13.3517 8.47812,-21.2328 21.07272,-16.9433 22.0808,2.034 44.05581,6.0658 66.19749,6.8476 4.31869,-13.9918 -20.55565,-7.2531 -28.67863,-11.604 -47.49257,-6.6322 -94.79558,-14.5881 -142.28691,-21.1813 -1.63649,9.7755 1.89418,23.0421 2.69075,34.1252 -1.91153,15.2674 14.52621,15.0746 25.15189,16.7157 16.90878,2.0586 34.07532,4.381 51.09958,3.0368 4.50171,-1.4608 3.82528,-7.3305 4.75311,-10.9967 z m 85.04018,10.3449 c 14.30373,-5.5775 -14.84156,-18.1065 -18.35075,-6.8592 -3.91123,12.2023 12.37856,6.1453 18.35075,6.8592 z m -189.38486,33.3477 c -17.13654,0.364 -0.21792,-17.8488 -2.1719,-27.101 -0.0167,-6.5258 0.39621,-25.1742 9.70434,-13.9913 4.50995,12.9963 7.07896,27.0205 9.13561,40.5423 -4.76791,2.8924 -11.40175,0.7702 -16.66805,0.55 z" />
  </g>
</svg>
