<?xml version="1.0" encoding="UTF-8" standalone="no"?>
<!-- Created with Inkscape (http://www.inkscape.org/) -->

<svg
   version="1.1"
   id="svg1"
   width="922.11615"
   height="514.36298"
   viewBox="0 0 922.11611 514.36298"
   xmlns="http://www.w3.org/2000/svg"
   xmlns:svg="http://www.w3.org/2000/svg">
  <defs
     id="defs1" />
  <g
     id="g1"
     transform="translate(-74.532898,-44.421127)">
    <path
       style="fill:#000000"
       d="m 258.72043,557.02751 c -89.26244,-21.65181 -81.10274,-201.58336 9.95399,-219.49768 36.20017,-7.12195 66.77376,16.63253 61.00241,47.39649 -3.32369,17.71679 -28.74823,18.53015 -28.75564,0.91991 -0.009,-21.26441 -25.77471,-26.00632 -44.59469,-8.20717 -25.80165,24.40213 -32.95028,89.65649 -13.76514,125.6515 15.54396,29.16346 51.37482,33.69882 63.58782,8.04875 9.44195,-19.83023 31.15941,-17.45618 29.03024,3.17345 -2.97514,28.82634 -42.43485,50.76777 -76.45899,42.51475 z m 460.20286,0.94035 c -47.27211,-6.53746 -76.93967,-32.2699 -114.52682,-99.33591 -11.45843,-20.44505 -11.2899,-20.25635 -16.97589,-19.00749 -4.10431,0.90145 -4.10431,0.90145 -2.98226,15.76546 2.03589,26.9698 1.15981,30.16908 -9.01135,32.90789 -13.88163,3.73793 -18.11815,-3.16743 -19.86123,-32.37305 -6.97981,-116.94797 -8.79278,-110.20666 29.97407,-111.45488 54.18349,-1.74461 80.58673,50.67529 39.28978,78.00431 -6.87898,4.55229 -7.23488,3.28799 8.22185,29.20673 25.35755,42.52101 38.30367,56.86924 62.4605,69.22517 28.92985,14.79727 67.55448,13.77599 80.07803,-2.11737 11.42154,-14.49483 15.58238,-16.39348 23.05115,-10.51855 25.61127,20.14583 -32.30844,56.25414 -79.71783,49.69769 z M 598.03211,411.44941 c 25.06982,-12.49281 19.57356,-43.19549 -7.73267,-43.19549 -8.04282,0 -8.04282,0 -8.03592,10.33333 0.025,37.41379 1.30046,40.07193 15.76859,32.86216 z M 353.33842,520.3183 c -6.21513,-3.78963 -7.06595,-8.82951 -7.07438,-41.9055 -0.008,-33.24383 0.7354,-32.25519 -17.76239,-23.60678 -12.18421,5.69657 -16.24139,5.19013 -20.23125,-2.52541 -5.60424,-10.8374 6.22745,-22.77843 27.28075,-27.53287 9.79292,-2.21152 9.79292,-2.21152 8.89723,-45.21848 -0.9805,-47.07956 -0.34746,-49.94201 11.04489,-49.94201 15.27952,0 16.14825,2.53319 17.38748,50.70176 1.21661,47.28885 -0.83587,42.63158 18.78788,42.63158 15.92131,0 15.92131,0 15.99624,-12.33334 0.22652,-37.2825 2.84389,-46.33333 13.39897,-46.33333 13.55897,0 14.5217,3.47691 14.54587,52.5323 0.0109,22.0739 0.62584,48.83437 1.36659,59.4677 2.04412,29.34319 0.43737,33.33334 -13.42271,33.33334 -12.02995,0 -13.6823,-4.46685 -15.42823,-41.70762 -0.86143,-18.37429 -0.86143,-18.37429 -17.56668,-18.01117 -16.70525,0.36312 -16.70525,0.36312 -15.81792,29.96629 0.76168,25.41127 0.58619,30.3558 -1.23934,34.91824 -3.21843,8.04364 -12.08482,10.4909 -20.163,5.5653 z m 102.68984,-17.99208 c -8.54547,-3.74951 -8.55271,-4.11569 -0.93572,-47.37404 13.33317,-75.72175 21.57045,-95.24882 40.18605,-95.26397 13.10984,-0.0107 15.73704,5.03567 35.00217,67.23238 5.79224,18.7 12.05635,38.45509 13.92026,43.9002 5.23879,15.30427 4.10301,21.12421 -4.81912,24.69414 -10.99605,4.39975 -15.10533,0.61758 -23.09989,-21.26101 -3.21556,-8.8 -6.41636,-15.87346 -7.11288,-15.7188 -0.69651,0.15466 -7.43577,1.20366 -14.97612,2.33112 -16.385,2.44992 -14.01161,0.15333 -16.62316,16.08524 -4.08551,24.92387 -9.10193,30.83292 -21.54159,25.37474 z m 45.37833,-68.18644 c 1.25571,-0.48186 2.01106,-1.83655 1.69714,-3.04376 -8.5809,-32.99942 -10.75722,-35.12962 -15.75179,-15.41798 -5.47579,21.61082 -2.91558,24.97383 14.05465,18.46174 z m 401.8446,66.07808 c -16.336,-4.1052 -27.6434,-14.39875 -43.5341,-39.6306 -10.2674,-16.30287 -11.4367,-17.66667 -15.148,-17.66667 -4.0218,0 -4.0218,0 -2.8926,17.66667 1.9989,31.27392 1.4069,33 -11.3181,33 -14.3335,0 -12.8057,9.16592 -19.58101,-117.47395 -1.29237,-24.15625 0.58044,-26.73071 21.34571,-29.34299 61.3666,-7.71993 91.6469,49.40672 44.2511,83.4836 -4.2957,3.08858 5.2194,19.84688 20.166,35.51682 19.7794,20.73658 39.5389,12.52194 31.468,-13.08215 -4.9724,-15.77422 13.6589,-22.66088 23.0234,-8.51012 19.006,28.71999 -11.9617,65.04055 -47.7804,56.03939 z m -47.8897,-85.3083 c 22.0403,-10.002 19.1386,-41.05038 -4.1631,-44.54469 -12.9566,-1.94296 -13.1431,-1.33861 -10.7669,34.88905 0.9221,14.05917 2.697,15.20702 14.93,9.65564 z m -114.69712,75.47938 c -13.55966,-3.65046 -14.14185,-5.51969 -15.89298,-51.02686 -2.76914,-71.96265 -5.01954,-67.76677 38.54379,-71.86519 29.80313,-2.80387 32.27479,-1.98007 32.27479,10.75703 0,11.67158 -1.66517,12.54836 -26.66667,14.04101 -10.63334,0.63484 -19.48334,1.18532 -19.66667,1.22329 -0.18333,0.038 -0.33333,4.86903 -0.33333,10.7357 0,10.66667 0,10.66667 15.90322,10.66667 18.26132,0 21.43011,1.77914 21.43011,12.0321 0,10.05493 -6.51963,12.64853 -33.19762,13.20647 -4.30944,0.0901 -5.83894,16.76948 -2.09349,22.82975 1.04383,1.68895 20.62027,1.60965 33.15897,-0.13432 14.69498,-2.04388 20.64056,3.81737 17.35647,17.11032 -2.4776,10.02854 -39.02012,16.29197 -60.81659,10.42403 z m -57.90962,-4.78227 c -10.67919,-4.31239 -15.01752,-38.59136 -13.01142,-102.80859 0.98563,-31.55088 1.81147,-30.49678 -23.9226,-30.53468 -17.98276,-0.0265 -19.13869,-21.46711 -1.3374,-24.80665 8.19394,-1.53719 29.68813,0.40443 46.43996,4.19504 25.90652,5.86213 41.18749,5.40455 59.90554,-1.79385 16.87015,-6.48774 16.64948,-6.45777 21.19841,-2.87958 20.15768,15.85603 -23.09641,38.3399 -64.72992,33.6472 -8.24325,-0.92914 -10.62893,49.1361 -4.87108,102.22364 1.40873,12.98858 1.34192,14.93416 -0.61539,17.92139 -3.18826,4.86591 -12.88696,7.32725 -19.0561,4.83608 z M 131.52405,382.85258 c -43.330801,-6.45704 -69.414101,-52.51384 -51.017511,-90.08457 15.69615,-32.05572 69.011911,-35.94601 66.716291,-4.86809 -0.90761,12.28703 -7.83314,16.06984 -20.10693,10.98264 -21.33225,-8.84172 -29.303711,26.87751 -10.0226,44.91014 12.01821,11.24001 36.24323,10.98368 46.16614,-0.4885 15.28022,-17.66594 19.20494,-62.62339 14.92831,-171.00311 -1.63093,-41.33166 7.4e-4,-36.89852 -12.09107,-32.85084 -28.87111,9.66449 -47.71164,6.84477 -50.03765,-7.48877 -1.33007,-8.19625 4.22411,-12.5976 18.19755,-14.42043 6.54589,-0.85391 20.9469,-4.61764 34.09152,-8.90988 42.07046,-13.737653 41.09279,-15.252423 43.21549,66.95608 2.87775,111.4499 1.54495,138.1111 -8.2187,164.40652 -11.20578,30.17936 -40.31976,47.55302 -71.82084,42.85881 z m 321.62013,-40.64386 c -23.00397,-4.99312 -32.37271,-19.45006 -20.37777,-31.445 6.86966,-6.86966 12.22658,-7.00708 21.60729,-0.55428 37.82071,26.01606 92.64351,-29.12973 58.23717,-58.58028 -8.8355,-7.56286 -38.36639,-12.98545 -38.34954,-7.04191 0.003,0.91666 0.61104,11.17121 1.35209,22.78787 1.95449,30.63845 -0.17052,35.54546 -15.39316,35.54546 -15.16432,0 -14.70015,2.9012 -18.79229,-117.45641 -1.02893,-30.26287 -0.31476,-31.7638 16.82864,-35.36809 56.36809,-11.85101 94.91597,29.78991 63.86735,68.99199 -2.30385,2.90885 -3.96649,5.48897 -3.69475,5.7336 0.27174,0.24462 3.66456,2.03745 7.53961,3.98405 21.57808,10.83958 32.5071,39.53468 24.98442,65.59879 -10.52572,36.46889 -53.42792,57.43735 -97.80906,47.80421 z M 489.6868,213.54036 c 19.43557,-9.4086 17.90207,-35.6081 -2.35054,-40.15856 -14.24672,-3.20103 -15.46576,-1.6702 -14.83301,18.62687 0.83642,26.83067 2.34151,28.7166 17.18355,21.53169 z m 425.38059,126.09472 c -42.122,-12.0639 -60.8302,-59.55155 -33.852,-85.92777 20.3466,-19.89256 60.6946,-9.01808 51.1648,13.7898 -2.9068,6.95713 -9.1727,9.44443 -16.9126,6.71364 -12.378,-4.36723 -19.6658,6.39571 -13.814,20.40113 11.1288,26.63492 53.1504,22.43552 61.458,-6.14177 6.2336,-21.44264 -2.9839,-37.3114 -39.6741,-68.30257 -42.0711,-35.53627 -50.5038,-66.07915 -25.3338,-91.75756 30.9179,-31.542423 99.5231,-5.65788 80.8272,30.49587 -7.225,13.97177 -26.0076,9.26404 -26.0076,-6.51864 0,-14.67904 -19.5352,-16.1926 -29.8954,-2.31624 -9.9873,13.37697 -1.3315,27.93162 34.7127,58.36863 70.14781,59.23545 39.122,154.62192 -42.6732,131.19548 z m -670.8108,-18.73219 c -7.90403,-4.21705 -7.42463,1.06571 -7.9338,-87.42792 -0.25913,-45.03825 -0.91845,-89.20931 -1.46516,-98.15791 -1.50263,-24.59547 19.69733,-38.630293 28.07287,-18.58482 2.45034,5.8645 4.52794,191.28571 2.20866,197.11861 -2.88331,7.25145 -13.67696,10.89646 -20.88257,7.05204 z m 538.63599,-7.11699 c -8.91563,-5.43703 -15.96077,-19.47151 -25.38961,-50.5781 -2.58809,-8.53835 -4.90252,-15.72118 -5.14318,-15.96183 -0.72243,-0.72244 -40.03385,5.14556 -40.95409,6.1132 -0.46801,0.49211 -2.38203,8.27286 -4.25337,17.29056 -5.21864,25.14771 -8.71348,29.85249 -20.52873,27.63593 -15.62911,-2.93203 -15.54474,-6.80196 1.64996,-75.68481 20.18615,-80.8667 24.15371,-91.93257 34.81136,-97.09185 19.98258,-9.6734 31.52732,7.41179 46.59787,68.96064 3.04757,12.4464 3.99294,14.72503 5.7756,13.92099 1.17237,-0.52878 4.95757,-2.29332 8.41156,-3.92119 20.84156,-9.8227 24.64173,17.74851 4.05335,29.40812 -3.85,2.18034 -7.00475,4.35697 -7.01056,4.83697 -0.0216,1.78832 12.42203,34.75428 18.8494,49.93611 9.84153,23.24632 1.18447,36.14515 -16.86956,25.13526 z m -45.0785,-92.33553 c 4.6434,-0.80861 8.44255,-1.55937 8.44255,-1.66834 0,-1.27833 -13.44193,-46.74782 -13.97844,-47.28434 -1.80856,-1.80855 -8.88445,20.85657 -14.59697,46.75622 -0.95327,4.32199 4.50661,4.91766 20.13286,2.19646 z m 92.48791,92.46814 c -10.6228,-5.35875 -11.8362,-18.188 -12.448,-131.61419 -0.3594,-66.61627 -0.3594,-66.61627 -12.97835,-68.21742 -6.94045,-0.88063 -19.21901,-3.10866 -27.28567,-4.95116 -58.30299,-13.316953 -68.21172,-11.764703 -90.74158,14.21511 -12.03333,13.87597 -29.71259,2.30475 -22.09603,-14.46203 14.23683,-31.340323 59.35088,-41.110483 126.17094,-27.324323 68.71039,14.17618 102.61919,7.85238 110.69469,-20.64392 6.882,-24.28439 33.0837,-20.79663 31.0167,4.12867 -2.2258,26.8406 -31.8314,48.126953 -72.1815,51.898333 -10.4702,0.9786 -10.4702,0.9786 -9.8281,79.80914 0.4242,52.09214 1.235,84.09263 2.3903,94.34433 2.0439,18.13696 1.1324,20.89828 -7.7796,23.56839 -7.083,2.12211 -9.4772,2.00172 -14.9338,-0.75093 z m -539.93252,-5.34659 c -3.81603,-3.81603 -4.3098,-18.59833 -6.0112,-179.96122 -0.13144,-12.46604 4.05683,-17.64839 15.12237,-18.71165 11.37594,-1.09308 14.98092,4.79202 42.484,69.35486 10.46672,24.57038 11.46037,26.02751 13.71139,20.10687 2.41541,-6.35299 23.85837,-56.75675 29.593,-69.5612 9.04071,-20.18638 19.85692,-25.94955 30.63321,-16.32223 4.35437,3.89011 4.35437,3.89011 5.30266,67.66667 0.52156,35.07711 1.56011,73.57324 2.30788,85.54696 1.87585,30.03684 -1.53035,36.46413 -17.10234,32.27103 -11.85658,-3.19265 -13.29489,-9.68852 -14.41023,-65.08096 -0.52436,-26.04217 -1.32666,-41.5439 -2.13616,-41.27406 -0.71303,0.23767 -5.6066,10.30546 -10.87461,22.37286 -13.53516,31.00492 -13.97872,31.82703 -18.40794,34.11747 -12.52429,6.47656 -18.12934,0.19973 -36.76976,-41.17674 -6.69349,-14.85766 -6.88848,-13.67704 -6.88848,41.70949 0,62.47922 -0.037,62.62385 -16.01491,62.62385 -5.70938,0 -7.47307,-0.61619 -10.53888,-3.682 z m 313.15456,-7.3847 c -33.80116,-9.57658 -54.10809,-65.68661 -40.43806,-111.73431 15.96435,-53.77616 74.39856,-61.40734 97.75893,-12.76677 29.00519,60.3941 -7.06539,138.73951 -57.32087,124.50108 z m 18.89433,-27.36035 c 20.76458,-8.70534 23.13732,-82.96304 3.15317,-98.68257 -16.93375,-13.32009 -32.33402,7.03042 -33.63223,44.44295 -1.30531,37.61724 12.31463,61.85487 30.47906,54.23962 z"
       id="path1" />
  </g>
</svg>
